<svg aria-hidden="true" style="position:absolute;width:0;height:0;overflow:hidden" xmlns="http://www.w3.org/2000/svg">
    <defs>
        <symbol id="icon-antenna" viewBox="0 0 30 32">
            <path fill="#212121"
                d="m29.859 22.098-8.443-8.505.937-4.615c.242.094.499.144.758.146h.032a2.16 2.16 0 1 0-2.029-1.42l-.005-.015-4.96.605L8.058.161a.53.53 0 0 0-.377-.16.533.533 0 0 0-.373.155L5.795 1.66a.535.535 0 0 0 0 .754l.814.826c-1.143 2.062-1.816 4.522-1.816 7.139 0 4.105 1.656 7.824 4.336 10.525l-.001-.001c.041.04.09.073.143.097l.003.001c-.034.18-.051.364-.052.547v6.187h-6.4a2.67 2.67 0 0 0-2.667 2.667v1.067c0 .295.239.533.533.533h24.533a.533.533 0 0 0 .533-.533v-1.067a2.67 2.67 0 0 0-2.667-2.667h-6.4v-2.742c.915.2 1.968.317 3.047.32h.002a14.784 14.784 0 0 0 7.117-1.822l-.077.039.818.823a.53.53 0 0 0 .377.16.533.533 0 0 0 .373-.155l1.513-1.504a.535.535 0 0 0 0-.754zM22.366 6.233a1.066 1.066 0 1 1 .752 1.822h-.003a1.067 1.067 0 0 1-.747-1.823h-.002zM21.11 9.738l-.598 2.946-1.175-1.182 1.774-1.763zm-.606-.902-1.92 1.909-1.485-1.493 3.405-.415zM23.09 28.8a1.6 1.6 0 0 1 1.6 1.6v.533H1.223V30.4a1.6 1.6 0 0 1 1.6-1.6H23.09zm-7.467-2.133v1.067H10.29v-1.067h5.333zM10.29 25.6v-4.053c0-1.294 1.196-2.347 2.667-2.347s2.667 1.053 2.667 2.347V25.6h-5.333zm6.4-1.696v-2.357c0-1.882-1.675-3.413-3.733-3.413h-.058c-1.353 0-2.54.707-3.213 1.771l-.009.016a13.816 13.816 0 0 1-3.811-9.55c0-2.314.567-4.496 1.569-6.414l-.036.077 18.602 18.708c-1.823.947-3.979 1.502-6.266 1.502-1.079 0-2.129-.124-3.136-.358l.093.018zm11.289-.684L6.922 2.039l.755-.752 7.935 7.98c.004 0 .006.007.01.01l13.115 13.191-.757.752z" />
            <path fill="#2196f3"
                d="M12.961 20.267h-.007a1.6 1.6 0 0 0-.002 3.2h.007a1.6 1.6 0 0 0 .002-3.2zm.374 1.978a.534.534 0 0 1-.752-.756.532.532 0 1 1 .746.756h.005z" />
        </symbol>
        <symbol id="icon-astronaut" viewBox="0 0 32 32">
            <path fill="#2196f3"
                d="M31.974 4.524a.538.538 0 0 0-.427-.363h-.003l-1.91-.278-.855-1.731c-.179-.365-.777-.365-.956 0l-.855 1.731-1.91.278a.536.536 0 0 0-.296.91l1.383 1.348-.326 1.903a.536.536 0 0 0 .525.624.524.524 0 0 0 .252-.064l-.003.001 1.709-.899 1.709.899a.536.536 0 0 0 .774-.566v.003l-.326-1.903 1.383-1.348a.535.535 0 0 0 .134-.551l.001.004zm-2.463 1.327a.533.533 0 0 0-.153.475v-.003l.191 1.114-1-.526a.525.525 0 0 0-.501.001l.003-.001-1.001.526.191-1.114a.53.53 0 0 0-.153-.472l-.81-.789 1.119-.163a.537.537 0 0 0 .401-.289l.001-.003.5-1.013.5 1.013a.54.54 0 0 0 .399.292h.003l1.119.163-.809.789zm-3.377 14.671h-1.067v1.067h1.067v-1.067zm0 2.134h-1.067v1.067h1.067v-1.067zm1.066-1.067h-1.067v1.067H27.2v-1.067zm-2.133 0H24v1.067h1.067v-1.067zm-2.667 4.8h-1.067v1.067H22.4v-1.067zm0 2.133h-1.067v1.067H22.4v-1.067zm1.067-1.066H22.4v1.067h1.067v-1.067zm-2.134 0h-1.067v1.067h1.067v-1.067zM16 24.256h-1.067v1.067H16v-1.067zm0 2.133h-1.067v1.067H16v-1.067zm1.067-1.067H16v1.067h1.067v-1.067zm-2.134 0h-1.067v1.067h1.067v-1.067zm-9.066-19.2H4.8v1.067h1.067V6.122zm0 2.133H4.8v1.067h1.067V8.255z" />
            <path fill="#2196f3" d="M6.933 7.189H5.866v1.067h1.067V7.189zm-2.133 0H3.733v1.067H4.8V7.189z" />
            <path fill="#212121"
                d="M24.715 14.159a1.78 1.78 0 0 0-1.179-.704l-.009-.001a1.769 1.769 0 0 0-1.344.355l.004-.003-1.252.96-1.898 1.417-1.358-.541c2.421-1.086 4.114-3.508 4.114-6.32 0-3.823-3.123-6.933-6.961-6.933s-6.961 3.11-6.961 6.933v.001c0 1.398.418 2.698 1.136 3.782l-.016-.025-2.769-.024c-.009 0-.015.004-.023.005a.523.523 0 0 0-.159.032l.004-.001-.038.013c-.006.003-.013.003-.019.006l-3.234 1.597-1.893.911a.429.429 0 0 0-.064.036l.001-.001a1.78 1.78 0 0 0-.594 2.305l-.005-.01c.22.429.595.745 1.056.889a1.768 1.768 0 0 0 1.388-.133l-.009.005 1.388-.738 2.264-1.169 1.357-.008-6.783 6.75c-.316.315-.49.732-.49 1.178s.174.863.49 1.179c.325.323.752.485 1.179.485s.854-.162 1.18-.485l1.314-1.309 1.741-1.3.901.897-3.103 3.088c-.316.315-.49.732-.49 1.178s.174.863.49 1.179c.325.323.753.485 1.18.485s.855-.162 1.18-.485l3.483-3.469 1.01-1-.004-.004c.006-.006.015-.009.022-.015l5.166-5.658 3.471.494a.517.517 0 0 0 .265-.034l-.003.001c.018-.006.033-.015.05-.023.019-.01.039-.015.058-.027l3.213-2.133c.012-.008.018-.021.029-.029.013-.01.029-.014.041-.026l1.271-1.191c.662-.62.753-1.635.212-2.362zM2.13 17.77a.706.706 0 0 1-.563.05l.005.001a.719.719 0 0 1-.215-1.258l.002-.001 1.314-.632.449 1.312-.992.528zm3.498-1.828-1.548.8-.439-1.283 2.027-1.001-.04 1.484zm15.099-6.62a5.765 5.765 0 0 1-.614 2.592l.015-.033-4.181-1.899a1.863 1.863 0 0 0-.782-1.384l-.006-.004 1.464-4.86c2.378.756 4.105 2.974 4.105 5.588zm-11.789 0c0-3.235 2.644-5.867 5.894-5.867.253 0 .5.021.745.052l-1.432 4.754c-.019-.001-.037-.006-.057-.006-1.033 0-1.873.837-1.873 1.867s.84 1.867 1.873 1.867c.694 0 1.294-.383 1.618-.945l3.862 1.755a5.894 5.894 0 0 1-4.737 2.39c-3.25 0-5.894-2.632-5.894-5.867zm5.956.8c0 .441-.362.8-.806.8s-.806-.359-.806-.8c0-.441.362-.8.806-.8s.806.359.806.8zM2.465 25.146a.606.606 0 0 1-.855.001.59.59 0 0 1 0-.844l.962-.958.851.848-.959.955zm3.214 3.734a.606.606 0 0 1-.855.001.59.59 0 0 1 0-.844l.963-.959.852.848-.96.955zm3.481-3.469-.002.001-1.765 1.76-.852-.848 1.765-1.756c.04-.04.065-.088.09-.135.007-.014.02-.026.026-.04.017-.041.019-.085.026-.129.003-.025.014-.047.014-.073 0-.036-.013-.07-.02-.106-.006-.032-.006-.065-.019-.095a.56.56 0 0 0-.091-.138c-.01-.012-.014-.027-.025-.038h-.001l-.001-.002-1.607-1.6c-.017-.017-.039-.024-.058-.038a.563.563 0 0 0-.084-.057l-.003-.001a.444.444 0 0 0-.089-.032l-.004-.001a.502.502 0 0 0-.101-.02h-.023a.468.468 0 0 0-.076.006h.003a.608.608 0 0 0-.108.021l.004-.001a.502.502 0 0 0-.096.046l.002-.001c-.02.011-.042.015-.061.029l-1.773 1.324-.901-.897 2.399-2.386 4.361 4.289-.928.919zm6.819-7.017c-.015-.002-.03.004-.045.003h-.02a.552.552 0 0 0-.282.077l.003-.001a.481.481 0 0 0-.083.061c-.013.011-.028.017-.04.029l-4.698 5.146-4.328-4.257 2.833-2.818a.535.535 0 0 0-.378-.911H8.94v-.001l-2.219.013.028-1.607 3.104.027a6.926 6.926 0 0 0 4.978 2.101h.004c.437 0 .864-.045 1.279-.123.04.032.079.065.13.085l2.41.96.331 1.644-3.003-.427zm4.041.178-.313-1.558 1.446-1.08.947 1.257-2.08 1.381zm3.754-2.831-.838.785-.931-1.236.831-.637a.734.734 0 0 1 .547-.143h-.004a.72.72 0 0 1 .479.282l.001.002a.712.712 0 0 1-.085.947z" />
            <path fill="#212121"
                d="m13.602 18.544-2.143-2.133a.534.534 0 0 0-.754 0l-2.142 2.133a.537.537 0 0 0 0 .756l2.142 2.133a.533.533 0 0 0 .754-.001l2.143-2.133a.535.535 0 0 0 0-.756zm-2.519 1.759-1.387-1.381 1.387-1.381 1.387 1.381-1.387 1.381zm6.081-15.232-.258 1.036c.071.018 1.738.452 1.738 2.149h1.067c0-2.017-1.666-2.965-2.547-3.185zm2.547 4.251h-1.067v1.067h1.067V9.322z" />
        </symbol>
        <symbol id="icon-client-1" viewBox="0 0 32 32">
            <path fill="#afb1b8"
                d="m6.128 0 4.771 4.517-8.856-.005v21.915h23.149v-8.379l4.766 4.512V.001H6.128zm18.854 17.517L11.454 4.71h13.528v12.807zm-4.2 5.704H5.706V8.482h1.066v13.741h14.01v.998zM9.266 29.344l-.557 1.147-.557-1.147h-.467l.813 1.529v.891h.422v-.891l.811-1.529h-.465zm.699 2.42.196-.563h.938l.198.563h.439l-.916-2.42h-.377l-.914 2.42h.437zm.665-1.906.351 1.004h-.701l.351-1.004zm2.218.946a.544.544 0 0 0-.091.303v.004c0 .204.072.37.214.497.144.126.336.189.575.189s.445-.065.618-.194l.136.161h.469l-.356-.421c.14-.191.209-.435.209-.733h-.351v.012a.958.958 0 0 1-.104.437l.003-.006-.467-.552.165-.12a.911.911 0 0 0 .249-.25l.002-.003a.524.524 0 0 0 .076-.274v-.015a.494.494 0 0 0-.17-.373h-.001a.608.608 0 0 0-.408-.156h-.025.001l-.034-.001a.64.64 0 0 0-.432.167h.001a.591.591 0 0 0-.173.451v-.001c0 .078.018.158.055.241.038.083.104.184.198.303-.18.129-.3.24-.361.334zm1.092.535a.613.613 0 0 1-.382.136c-.121 0-.217-.035-.289-.105s-.108-.161-.108-.273c0-.13.067-.245.2-.346l.052-.037.529.623zm-.434-1.072c-.114-.141-.171-.258-.171-.351 0-.081.023-.148.07-.201s.109-.08.188-.08c.073 0 .133.023.181.068a.21.21 0 0 1 .072.158v.012c0 .09-.04.171-.103.225l-.052.042-.184.126zm3.939 1.314c.166-.145.262-.347.286-.605h-.419c-.022.173-.075.296-.158.371s-.207.111-.372.111l-.024.001a.466.466 0 0 1-.387-.205l-.001-.002c-.093-.137-.14-.337-.14-.598v-.214c.002-.258.052-.454.15-.587a.493.493 0 0 1 .424-.201h-.001c.157 0 .276.039.357.116.082.076.133.202.153.376h.419c-.027-.265-.121-.47-.284-.615s-.378-.218-.645-.218h-.019a.972.972 0 0 0-.51.144l.004-.002c-.151.094-.267.228-.347.402s-.121.375-.121.603v.226c.003.223.045.418.125.587s.193.299.339.391c.14.086.309.136.49.136h.021-.001c.276 0 .497-.072.663-.216zm2.472-.339c.082-.18.123-.388.123-.625v-.161c0-.215-.046-.419-.13-.603l.004.009a.927.927 0 0 0-.846-.553l-.034.001h.002-.018a.949.949 0 0 0-.511.148l.004-.002a.953.953 0 0 0-.352.408l-.002.006a1.465 1.465 0 0 0-.125.597v.03-.001.136c.001.232.043.436.126.613a.969.969 0 0 0 .352.409l.004.002c.145.09.321.143.51.143h.016-.001.018a.956.956 0 0 0 .511-.146l-.004.002c.155-.1.276-.24.35-.406l.002-.006zm-.45-1.368c.102.143.153.349.153.617v.126c0 .273-.05.48-.151.622a.492.492 0 0 1-.406.214l-.024-.001h.001-.017a.504.504 0 0 1-.414-.217l-.001-.002c-.103-.145-.155-.351-.155-.617v-.14c.002-.26.054-.462.156-.603a.497.497 0 0 1 .408-.214h.02-.001c.186 0 .33.072.43.214z" />
        </symbol>
        <symbol id="icon-client-2" viewBox="0 0 32 32">
            <path fill="#afb1b8"
                d="M14.224 1.806h-.084a9.502 9.502 0 0 0-.379-.014H13.472c-.244 0-.494.006-.741.019l-.028-.001-.029.001h.001A17.367 17.367 0 0 0 6.1 3.507l.104-.045-.266.128v13.625l.623-.211c.404-.148.982-.323 1.569-.477l.162-.036c1.488-.398 3.202-.638 4.967-.662h.015v1.79c-.237.002-.465.009-.693.021l.038-.002h-.051c-1.399.079-2.71.289-3.972.619l.139-.031c-1.59.398-3.124.996-4.566 1.779V2.53A17.86 17.86 0 0 1 8.832.61l.127-.028A17.87 17.87 0 0 1 13.47 0h.267c.314.008.621.022.909.044.759.053 1.511.173 2.249.358v1.762a13.158 13.158 0 0 0-2.133-.326l-.046-.003-.045-.004c-.152-.013-.304-.026-.446-.026zm3.101 1.801c.391.03.796.044 1.205.044a19.381 19.381 0 0 0 4.882-.639l-.135.03c1.589-.4 3.123-.998 4.564-1.781v17.163a17.874 17.874 0 0 1-4.665 1.92l-.127.028a18.052 18.052 0 0 1-4.51.581h-.116c-1.177 0-2.319-.148-3.409-.425l.095.021V3.274c.265.061.537.117.814.164.455.077.934.133 1.401.167zm8.735.133-.623.21c-.573.192-1.15.365-1.731.518-1.551.415-3.332.656-5.169.663h-.004c-.406 0-.78-.011-1.141-.034l-.497-.033v14.017l.427.038c.395.034.803.052 1.214.052a16.613 16.613 0 0 0 4.19-.553l-.116.026a16.994 16.994 0 0 0 3.286-1.189l-.102.045.266-.128V3.742zM5.377 25.977a.91.91 0 0 0-.695-.28h.002-.013c-.139 0-.272.028-.394.078l.007-.003a.916.916 0 0 0-.51.512l-.002.006a.997.997 0 0 0-.072.377v.01-.001 2.335c-.006.165.026.328.092.479.055.12.135.226.234.313a.814.814 0 0 0 .315.165l.006.001c.114.032.231.048.349.049a.972.972 0 0 0 .89-.604l.002-.006a.94.94 0 0 0 .075-.37v-.263h-.61V28.999a.534.534 0 0 1-.037.196l.001-.004a.367.367 0 0 1-.089.131.375.375 0 0 1-.125.066l-.003.001a.429.429 0 0 1-.128.022.314.314 0 0 1-.286-.124l-.001-.001a.545.545 0 0 1-.082-.288l.001-.027v.001-2.201a.74.74 0 0 1 .077-.329l-.002.004a.31.31 0 0 1 .261-.143l.039.002h-.002.009c.107 0 .202.051.263.13l.001.001c.068.09.104.2.101.313v.202h.604v-.246c0-.281-.106-.537-.28-.73l.001.001zm3.625-.027a1.048 1.048 0 0 0-1.381.001l.001-.001a.984.984 0 0 0-.235.321l-.002.006a1.089 1.089 0 0 0-.089.434v.019-.001 2.268c0 .156.033.303.092.437l-.003-.007c.055.12.136.227.237.313.09.084.197.151.316.195l.006.002a1.012 1.012 0 0 0 .735-.002l-.007.002c.121-.044.233-.111.33-.197a.958.958 0 0 0 .228-.307l.002-.006c.056-.127.089-.275.089-.43v-.03.001V26.707c0-.155-.033-.303-.092-.437l.003.007a1.027 1.027 0 0 0-.23-.327zm-.284 3.019.001.034a.406.406 0 0 1-.122.29.443.443 0 0 1-.575 0l.001.001a.394.394 0 0 1-.123-.287l.002-.039v.002-2.239l-.001-.034c0-.114.047-.216.122-.29a.443.443 0 0 1 .575 0l-.001-.001a.394.394 0 0 1 .123.287l-.002.039v-.002 2.239zm5.046 1V25.73h-.587l-.771 2.244h-.011l-.777-2.244h-.581v4.239h.606V27.39h.011l.593 1.823h.302l.598-1.823h.011v2.579h.606zm3.441-3.942a.843.843 0 0 0-.337-.23l-.006-.002a1.333 1.333 0 0 0-.419-.066h-.92v4.239h.604v-1.656h.311c.189.009.376-.031.545-.116a.89.89 0 0 0 .33-.32l.002-.004a1 1 0 0 0 .138-.363l.001-.006c.024-.16.035-.321.033-.482l.001-.07c0-.19-.022-.375-.063-.552l.003.016a.906.906 0 0 0-.223-.39zm-.311 1.292a.553.553 0 0 1-.057.224l.001-.003a.35.35 0 0 1-.154.148l-.002.001a.61.61 0 0 1-.253.054l-.034-.001h.002-.276v-1.441h.311l.029-.001c.088 0 .172.02.247.055l-.003-.002c.062.037.111.09.141.155l.001.002c.032.069.051.15.053.235v.283c0 .099.006.2 0 .291h-.006zm3.172-1.589h-.495l-.934 4.239h.604l.177-.911h.823l.177.911h.604l-.957-4.239zm-.557 2.751.297-1.537h.011l.296 1.537h-.604zm4.46-.197h-.011l-.912-2.554h-.581v4.239h.604V27.42h.012l.923 2.549h.568V25.73h-.604v2.554zm3.691-2.554-.486 1.685h-.012l-.486-1.685h-.64l.83 2.447v1.792h.604v-1.792l.83-2.447h-.64zM3.692 31.166h.291v.817h.198v-.817h.29v-.167h-.778v.167zm2.448-.168-.381.984h.21l.081-.224h.392l.084.224h.215l-.391-.984h-.21zm-.032.595.134-.365.134.365h-.268zm2.451.027h.227v.127a.376.376 0 0 1-.233.083l-.017.001a.243.243 0 0 1-.192-.093v-.001a.408.408 0 0 1-.074-.235l.001-.023v.001c0-.219.095-.329.283-.329l.022-.001c.097 0 .178.067.2.157v.001l.195-.038c-.042-.192-.181-.289-.417-.289h-.013a.49.49 0 0 0-.332.128.492.492 0 0 0-.141.381v-.002l-.001.025a.53.53 0 0 0 .127.345l-.001-.001c.087.09.208.145.343.145l.033-.001h-.001.016c.155 0 .296-.06.401-.158v-.388h-.427v.166zm2.47-.622h-.199v.984h.69v-.167h-.49v-.817zm2.089 0h-.199v.984h.199v-.984zm2.043.658-.403-.657h-.193v.984h.185v-.643l.395.643h.198v-.984h-.182v.657zm1.846-.107h.49v-.167h-.49v-.216h.528v-.167h-.727v.984h.747v-.167h-.548v-.266zm4.477-.162h-.388v-.388h-.198v.984h.198v-.43h.388v.43h.198v-.984h-.198v.388zm1.858.162h.492v-.167h-.492v-.216h.529v-.167h-.727v.984h.746v-.167h-.548v-.266zm2.518 0c.171-.027.258-.117.258-.274a.23.23 0 0 0-.095-.219h-.001a.55.55 0 0 0-.249-.059l-.041.001h.002-.417v.984h.198v-.412h.039l.017-.001c.038 0 .075.008.108.023l-.002-.001a.204.204 0 0 1 .069.071l.001.001.215.313h.237l-.12-.192a.684.684 0 0 0-.216-.234l-.002-.002zm-.199-.136h-.146v-.247h.156a.538.538 0 0 1 .205.024l-.004-.001a.135.135 0 0 1 .033.046.135.135 0 0 1-.005.112v-.001a.128.128 0 0 1-.037.043.55.55 0 0 1-.162.024c-.014 0-.028 0-.041-.002h.002zm2.099.136h.49v-.167h-.49v-.216h.529v-.167h-.729v.984h.747v-.167h-.548v-.266z" />
        </symbol>
        <symbol id="icon-client-3" viewBox="0 0 32 32">
            <path fill="#afb1b8"
                d="M5.267 30.294c.023.001.044.01.06.024l.155.148c-.12.12-.269.216-.436.281a1.675 1.675 0 0 1-.579.101l-.042-.001h.002-.031c-.198 0-.387-.035-.563-.098l.012.004a1.26 1.26 0 0 1-.439-.267l.001.001a1.193 1.193 0 0 1-.28-.403l-.003-.008a1.346 1.346 0 0 1-.099-.512v-.016.001-.028c0-.362.157-.687.407-.911l.001-.001c.132-.116.291-.207.465-.268.191-.064.394-.096.599-.094.19-.004.379.025.556.086.154.058.295.138.417.238l-.13.158a.147.147 0 0 1-.032.029h-.001a.088.088 0 0 1-.046.012h-.006a.123.123 0 0 1-.057-.017h.001l-.07-.042-.097-.054a1.088 1.088 0 0 0-.299-.093l-.007-.001a1.31 1.31 0 0 0-.215-.017h-.016.001-.019a1.22 1.22 0 0 0-.42.074l.008-.003c-.13.046-.242.114-.338.2l.001-.001a.914.914 0 0 0-.217.311l-.002.006c-.05.118-.079.255-.079.398v.021-.001c-.002.145.025.288.079.425.047.116.12.223.215.315a.87.87 0 0 0 .316.193l.006.002c.127.046.262.068.399.067.079.001.158-.003.237-.013a.941.941 0 0 0 .513-.218l-.001.001a.12.12 0 0 1 .074-.027zm4.478-.745c.002.179-.033.356-.105.524-.063.152-.163.291-.292.407s-.286.207-.458.267c-.38.126-.799.126-1.179 0a1.378 1.378 0 0 1-.457-.269l.001.001a1.193 1.193 0 0 1-.292-.403l-.003-.008c-.14-.339-.14-.71 0-1.05.066-.153.166-.293.295-.413.13-.112.285-.2.456-.258.379-.128.8-.128 1.179 0 .172.061.328.152.458.268.128.117.227.255.293.406.072.169.107.347.105.527zm-.407 0v-.022a1.1 1.1 0 0 0-.077-.407l.003.008a.867.867 0 0 0-.529-.512l-.006-.002a1.35 1.35 0 0 0-.866.003l.01-.003a.914.914 0 0 0-.328.199.833.833 0 0 0-.207.309l-.002.006a1.228 1.228 0 0 0 .003.851l-.003-.009a.862.862 0 0 0 .531.51l.006.002c.276.09.581.09.857 0a.934.934 0 0 0 .329-.198h-.001a.884.884 0 0 0 .205-.309l.002-.006a1.09 1.09 0 0 0 .074-.399v-.023.001zm3.463.442.041.094c.015-.034.029-.064.045-.094.015-.032.032-.063.05-.093l.991-1.565c.019-.027.037-.044.056-.049a.253.253 0 0 1 .081-.008h-.001.293v2.545h-.347v-1.95a.593.593 0 0 1 0-.09v.002l-.997 1.587c-.013.024-.033.044-.058.058s-.055.021-.085.021h-.056c-.03 0-.06-.007-.085-.021s-.046-.034-.058-.058l-1.026-1.597v2.043h-.335v-2.54h.307c.024 0 .047.003.069.009h-.002c.024.01.043.028.054.049l1.012 1.567c.02.029.037.059.05.091zm3.728-.127v.953h-.388v-2.542h.865c.163-.003.326.016.483.056.13.032.244.087.344.16l-.003-.002a.655.655 0 0 1 .192.245l.002.004a.753.753 0 0 1 .066.311v.014-.001.009a.73.73 0 0 1-.074.32l.002-.004a.713.713 0 0 1-.207.253l-.002.001a.953.953 0 0 1-.336.166l-.007.002a1.585 1.585 0 0 1-.436.059h-.033l-.467-.007zm0-.272h.481c.102 0 .202-.014.295-.041l-.008.002a.642.642 0 0 0 .218-.111l-.001.001a.486.486 0 0 0 .179-.377v-.005c.004-.071-.009-.141-.039-.207s-.076-.125-.136-.174a.823.823 0 0 0-.525-.135h.003-.469v1.048zm5.212 1.229h-.313a.144.144 0 0 1-.079-.024.165.165 0 0 1-.05-.058v-.001l-.264-.615h-1.324l-.273.615a.144.144 0 0 1-.131.082h-.311l1.163-2.546h.403l1.179 2.546zm-1.92-.945h1.093l-.461-1.036a1.693 1.693 0 0 1-.084-.227l-.003-.012-.045.133c-.014.04-.029.078-.043.108l-.458 1.034zm3.595-1.588a.171.171 0 0 1 .058.045l1.697 1.919v-1.976h.347v2.545h-.202a.174.174 0 0 1-.133-.062l-1.695-1.917a.593.593 0 0 1 0 .09v-.002 1.891h-.347v-2.545h.213c.023 0 .044.004.064.013h-.001zm4.959 1.521v1.011h-.388v-1.011l-1.072-1.533h.356c.027 0 .053.008.074.023a.208.208 0 0 1 .051.056l.001.001.671.989c.027.042.05.081.07.118s.035.072.049.108l.05-.11a.79.79 0 0 1 .068-.119l-.002.003.661-.996a.32.32 0 0 1 .05-.054.126.126 0 0 1 .076-.025h.358l-1.074 1.54zm-15.766-5.805c.169.019.339.034.512.047 2.616-1.017 4.829-2.681 6.363-4.785s2.319-4.553 2.259-7.043L18.86 9.718c.586 2.651.312 5.39-.792 7.913s-2.994 4.729-5.459 6.372z" />
            <path fill="#afb1b8"
                d="m11.579 23.888.078.013c2.634-1.637 4.642-3.923 5.765-6.562s1.308-5.51.533-8.242l-4.106-3.568c1.661 2.933 2.33 6.215 1.928 9.464s-1.857 6.334-4.196 8.893zm13.927-8.723c-.698 2.735-2.392 5.202-4.832 7.035-.666.507-1.418.983-2.21 1.392l-.086.04c1.986-.507 3.812-1.404 5.337-2.621s2.707-2.723 3.456-4.4l-1.665-1.445z" />
            <path fill="#afb1b8"
                d="m24.853 14.763-2.371-2.06c-.045 2.349-.814 4.644-2.226 6.648s-3.416 3.642-5.803 4.745h.012c.532 0 1.064-.028 1.592-.083 2.231-.791 4.202-2.05 5.737-3.664s2.586-3.533 3.06-5.586zM11.923 4.026 9.094 1.565c-2.529.849-4.704 2.342-6.24 4.282S.492 10.086.484 12.442c.009 2.603 1.018 5.128 2.865 7.177s4.429 3.504 7.335 4.135c2.594-2.746 4.113-6.14 4.336-9.688s-.862-7.065-3.097-10.04zm19.465 10.358c-.01-3.088-1.427-6.047-3.94-8.23s-5.919-3.414-9.473-3.423h-.026c-1.709 0-3.352.284-4.883.809l.106-.032 17.32 15.048c.593-1.33.897-2.744.896-4.171z" />
        </symbol>
        <symbol id="icon-client-4" viewBox="0 0 65 32">
            <path fill="#2196f3"
                d="M10.016 9.983h-.002c-1.827 0-3.308 1.316-3.308 2.94v.002c0 1.624 1.481 2.94 3.308 2.94h.002c1.827 0 3.308-1.316 3.308-2.94v-.002c0-1.624-1.481-2.94-3.308-2.94zm24.418-.94c-.005-2.255-1.015-4.417-2.81-6.012S27.398.538 24.86.533c-2.538.004-4.972.902-6.767 2.497s-2.806 3.757-2.811 6.013v12.436s19.149-1.895 19.151-12.434v-.002zM0 25.562c.005 1.569.708 3.073 1.956 4.183s2.94 1.735 4.706 1.74c1.765-.005 3.457-.63 4.705-1.739s1.952-2.613 1.957-4.182V16.91S-.001 18.23-.001 25.562zm6.662 1.55c-.345 0-.682-.091-.969-.261s-.511-.413-.643-.696-.167-.595-.099-.896.233-.577.477-.794.555-.364.893-.424c.338-.06.689-.029 1.008.088s.591.316.783.571a1.4 1.4 0 0 1 .159 1.464l.004-.009c-.087.189-.216.36-.378.505s-.355.259-.567.338-.439.119-.669.119v-.006zm13.466-.854h-1.286v1.328h-.67v-3.25h2.116v.542h-1.446v.839h1.286v.54zm3.218-.223c0 .32-.057.6-.17.842s-.275.427-.487.558c-.21.131-.451.196-.723.196l-.042.001c-.516 0-.961-.303-1.167-.741l-.003-.008a1.883 1.883 0 0 1-.176-.801v-.031.002-.161c0-.32.057-.601.172-.844.207-.45.653-.757 1.171-.757l.043.001h-.002c.271 0 .511.065.721.196.211.129.374.316.489.56.116.242.174.523.174.841v.145zm-.678-.147c0-.341-.061-.6-.183-.777s-.296-.266-.522-.266l-.025-.001a.596.596 0 0 0-.493.261l-.001.002c-.122.174-.184.43-.185.768v.158c0 .332.061.589.183.772s.298.275.527.275l.025.001a.591.591 0 0 0 .491-.261l.001-.002c.121-.177.182-.434.183-.772v-.158zm2.85.846v-.018a.34.34 0 0 0-.134-.271l-.001-.001c-.089-.068-.25-.14-.482-.214a3.473 3.473 0 0 1-.57-.232l.019.009c-.369-.199-.554-.468-.554-.806 0-.176.049-.332.147-.469a.998.998 0 0 1 .419-.322l.007-.002c.186-.077.394-.116.625-.116s.439.042.621.127a.99.99 0 0 1 .42.351l.002.004a.919.919 0 0 1 .152.508v.014-.001h-.67l.001-.025a.438.438 0 0 0-.141-.321c-.094-.083-.225-.125-.395-.125-.164 0-.291.035-.382.105a.322.322 0 0 0-.136.263v.009c0 .106.053.194.158.266.107.071.264.138.471.201.381.115.659.257.833.426s.261.381.261.634l.001.031a.786.786 0 0 1-.317.631l-.002.002c-.213.159-.499.239-.859.239-.25 0-.478-.045-.683-.136a1.112 1.112 0 0 1-.469-.374l-.002-.003a.961.961 0 0 1-.161-.535v-.02.001h.672c0 .359.214.538.643.538a.624.624 0 0 0 .376-.098l-.003.002a.317.317 0 0 0 .134-.26v-.013.001zm3.574-1.855h-.996v2.708h-.67v-2.708h-.982v-.542h2.647v.542zm2.339 1.299h-1.286v.871h1.509v.538h-2.179v-3.25h2.174v.542h-1.504v.775h1.286v.525zm1.82.218h-.533v1.19h-.67v-3.25h1.208c.384 0 .68.086.888.257s.312.413.312.725l.001.037a.99.99 0 0 1-.148.523l.002-.004a.986.986 0 0 1-.429.351l-.006.002.703 1.328v.031h-.719l-.609-1.19zm-.534-.542h.54c.168 0 .298-.042.391-.127a.46.46 0 0 0 .139-.33l-.001-.026v.001l.001-.027c0-.13-.05-.248-.133-.336-.086-.088-.219-.132-.4-.132h-.538v.975zm4.058.587v1.145h-.67v-3.25h1.268c.244 0 .458.045.643.134.18.084.326.215.427.378l.002.004c.1.164.15.35.15.56 0 .318-.109.57-.328.754-.217.183-.519.275-.904.275h-.587zm0-.542h.598c.177 0 .312-.042.404-.125.094-.083.141-.202.141-.357 0-.159-.047-.288-.141-.386s-.223-.149-.388-.152h-.614v1.02zm4.237.279h-1.286v.871h1.509v.538h-2.179v-3.25h2.174v.542h-1.504v.775h1.286v.525zm3.107-1.299h-.995v2.708h-.67v-2.708h-.982v-.542h2.647v.542zm2.339 1.299h-1.286v.871h1.509v.538h-2.178v-3.25h2.174v.542h-1.504v.775h1.286v.525zm1.819.218h-.533v1.19h-.67v-3.25h1.208c.384 0 .68.086.888.257s.313.413.313.725l.001.037a.99.99 0 0 1-.148.523l.002-.004a.986.986 0 0 1-.429.351l-.006.002.703 1.328v.031h-.719l-.609-1.19zm-.533-.542h.54c.168 0 .298-.042.391-.127a.46.46 0 0 0 .139-.33l-.001-.026v.001l.001-.027c0-.13-.05-.248-.133-.336-.086-.088-.219-.132-.4-.132h-.538v.975zm3.935.88v-.018a.34.34 0 0 0-.134-.271l-.001-.001c-.089-.068-.25-.14-.482-.214a3.473 3.473 0 0 1-.57-.232l.019.009c-.369-.199-.554-.468-.554-.806 0-.176.049-.332.147-.469a.998.998 0 0 1 .419-.322l.007-.002c.186-.077.394-.116.625-.116s.439.042.621.127a.983.983 0 0 1 .42.351l.002.004a.919.919 0 0 1 .152.508v.014-.001h-.67l.001-.025a.434.434 0 0 0-.141-.321c-.094-.083-.225-.125-.395-.125-.164 0-.291.035-.382.105a.322.322 0 0 0-.136.263v.009c0 .106.053.194.158.266.107.071.264.138.471.201.381.115.658.257.833.426s.261.381.261.634l.001.031a.784.784 0 0 1-.318.631l-.002.002c-.213.159-.499.239-.859.239-.25 0-.478-.045-.683-.136a1.112 1.112 0 0 1-.469-.374l-.002-.003a.961.961 0 0 1-.161-.535v-.02.001h.672c0 .359.214.538.643.538l.036.001a.63.63 0 0 0 .34-.099l-.003.002a.317.317 0 0 0 .134-.26v-.013.001z" />
        </symbol>
        <symbol id="icon-client-5" viewBox="0 0 32 32">
            <path fill="#afb1b8"
                d="M2.416 23.738c.124.14.19.316.186.496.006.118-.016.235-.066.344s-.126.205-.222.283c-.24.166-.538.248-.839.229H0v-3.145h1.445c.285-.017.568.056.8.209.093.072.167.162.216.264s.071.213.064.324l.001.029a.69.69 0 0 1-.169.453l.001-.001a.791.791 0 0 1-.435.245l-.005.001a.86.86 0 0 1 .497.268l.001.001zm-1.73-.474h.617c.14.009.28-.028.393-.104.046-.038.082-.086.105-.139s.032-.111.027-.168c.004-.057-.005-.114-.028-.167s-.058-.101-.103-.14a.625.625 0 0 0-.354-.108l-.052.002h.002-.607v.825zm1.071 1.206c.05-.039.089-.089.114-.144s.036-.115.032-.175v-.016a.387.387 0 0 0-.149-.306l-.001-.001a.678.678 0 0 0-.379-.115l-.041.001h.002-.648v.865h.656a.685.685 0 0 0 .416-.111l-.003.002zm3.612.62-.804-1.229h-.302v1.229h-.691v-3.145h1.309c.33-.021.656.075.911.267.183.171.293.396.311.634s-.058.475-.214.667a1.09 1.09 0 0 1-.618.319l-.006.001.856 1.257h-.752zm-1.105-1.657h.565c.393 0 .589-.159.589-.476.004-.065-.007-.13-.032-.191s-.063-.116-.113-.163a.655.655 0 0 0-.393-.13l-.054.002h.002-.572l.007.957zm4.884 1.024H7.77l-.243.633h-.725l1.265-3.11h.784l1.26 3.11h-.725l-.238-.633zm-.185-.476-.503-1.327-.503 1.327h1.007zm4.915 1.109h-.686l-1.539-2.139v2.139h-.685v-3.145h.685l1.539 2.151v-2.151h.686v3.145zm3.916-.752a1.44 1.44 0 0 1-.612.551l-.009.004c-.299.138-.63.206-.965.198h-1.222v-3.145h1.222c.334-.008.665.058.965.194.263.121.479.312.621.548.141.256.215.538.215.825s-.074.569-.215.825zm-.785-.076c.196-.209.304-.475.304-.751s-.108-.542-.304-.75a1.257 1.257 0 0 0-.863-.266h.004-.476v2.036h.476c.314.018.622-.078.859-.267zM9.578 4.453s8.858 3.062 8.67 7.493v7.494s-8.851-3.063-8.666-7.494l-.003-7.493zm16.561 13.232a12.688 12.688 0 0 1 5.576-1.895l.052-.004V13.44c-2.327.821-4.302 2.311-5.628 4.245z" />
            <path fill="#afb1b8"
                d="M25.134 18.392c1.369-2.524 3.743-4.472 6.633-5.443v-6.76S19.152 10.551 19.419 16.86v10.67s.562-.195 1.446-.561c0-.341 0-.685.04-1.031.261-2.929 1.782-5.644 4.228-7.546z" />
            <path fill="#afb1b8"
                d="M23.934 22.356c.066-.74.214-1.472.441-2.185-1.523 1.643-2.446 3.682-2.638 5.83a9.16 9.16 0 0 0-.034.604v.011c.716-.315 1.55-.708 2.426-1.171a9.83 9.83 0 0 1-.237-2.176c0-.322.015-.64.044-.954l-.003.04zm.502.038a9.697 9.697 0 0 0 .167 2.861l-.011-.063c3.446-1.888 7.319-4.806 7.17-8.332v-.307c-2.462.252-4.766 1.238-6.557 2.805a9.547 9.547 0 0 0-.765 2.998l-.003.038z" />
        </symbol>
        <symbol id="icon-client-6" viewBox="0 0 32 32">
            <path fill="#afb1b8"
                d="M16.145 15.628a.998.998 0 0 1-.206-.68v.003-.982c0-.301.068-.53.205-.686s.371-.234.703-.234c.312 0 .534.067.665.2.143.17.213.378.197.587v.231h-.559V13.8c0-.069-.006-.137-.017-.203l.001.007a.217.217 0 0 0-.08-.136.317.317 0 0 0-.178-.054l-.025.001h.001l-.024-.001a.336.336 0 0 0-.19.058l.001-.001a.27.27 0 0 0-.093.148v.002c-.016.08-.023.161-.022.243v1.191a.596.596 0 0 0 .073.338l-.002-.003c.028.035.066.063.111.081s.095.024.144.019l.024.001a.304.304 0 0 0 .175-.056l-.001.001a.24.24 0 0 0 .083-.144v-.001c.013-.079.019-.159.017-.239v-.242h.559v.221l.002.059a.89.89 0 0 1-.196.56l.001-.002c-.128.146-.347.219-.668.219s-.564-.078-.702-.24zm2.325.01c-.141-.153-.212-.375-.212-.67v-1.032c0-.292.071-.512.212-.662s.377-.224.708-.224c.328 0 .563.075.704.224s.213.37.213.662v1.032c0 .292-.072.515-.215.669s-.377.231-.702.231c-.325 0-.566-.078-.708-.23zm.968-.247a.56.56 0 0 0 .068-.27l-.001-.038v.002-1.264l.001-.033a.57.57 0 0 0-.068-.27l.001.003c-.028-.036-.068-.065-.114-.082s-.097-.024-.147-.018c-.05-.006-.101 0-.148.018s-.086.046-.115.082a.537.537 0 0 0-.067.302v-.002 1.27l-.001.036a.56.56 0 0 0 .07.273l-.002-.003a.36.36 0 0 0 .253.103h.009c.049 0 .098-.009.144-.027s.085-.043.118-.076v-.006zm1.329-2.311h.601l.452 1.905.463-1.905h.585l.059 2.749h-.433l-.046-1.911-.446 1.911h-.347l-.463-1.918-.043 1.918h-.437l.054-2.749zm2.835 0h.937c.54 0 .81.26.81.781 0 .499-.284.747-.852.747h-.319v1.222H23.6l.003-2.749zm.8 1.175c.057.006.115.002.17-.013s.105-.04.148-.074a.442.442 0 0 0 .083-.312v.002l.001-.032a.824.824 0 0 0-.03-.224l.001.006c-.008-.027-.023-.053-.043-.075s-.045-.041-.073-.055a.603.603 0 0 0-.229-.045l-.031.001h.001-.224v.822h.224zm1.78-1.175h.621l.637 2.749h-.539l-.126-.634h-.554l-.13.634h-.547l.637-2.749zm.531 1.797-.216-1.154-.216 1.154h.433zm1.242-1.797h.405l.775 1.568V13.08h.48v2.749h-.385l-.779-1.637v1.637h-.496l.001-2.749zm2.784 1.702-.644-1.697h.542l.393 1.09.369-1.09h.531l-.636 1.697v1.048h-.555v-1.048zm-13.701 2.25v.144h-.472v1.117h-.198v-1.117h-.474v-.144h1.144zm1.479 1.261h-.158a.069.069 0 0 1-.038-.012.064.064 0 0 1-.025-.029l-.136-.3h-.655l-.136.3a.085.085 0 0 1-.021.034.067.067 0 0 1-.039.012h-.157l.578-1.261h.201l.585 1.256zm-.958-.468h.546l-.231-.513a.952.952 0 0 1-.041-.112l-.002-.007-.022.067-.021.053-.229.512zm1.955.344.055.002.057-.002h-.003a.736.736 0 0 0 .181-.04l-.005.002.077-.031v-.284h-.231c-.006 0-.011 0-.017-.002s-.01-.004-.014-.008c-.004-.003-.007-.006-.009-.01s-.003-.008-.003-.013v-.097h.449v.483a.778.778 0 0 1-.239.102l-.005.001c-.041.011-.09.02-.141.026h-.004c-.05.005-.109.008-.169.008h-.01a.852.852 0 0 1-.287-.049l.006.002a.707.707 0 0 1-.232-.133l.001.001a.602.602 0 0 1-.147-.196l-.002-.004a.608.608 0 0 1-.053-.252v-.01l-.001-.026c0-.175.078-.331.201-.437l.001-.001a.695.695 0 0 1 .226-.13l.005-.001a.958.958 0 0 1 .3-.047h.011-.001c.054 0 .108.004.161.011.095.014.18.043.258.084l-.004-.002c.035.02.069.042.101.066l-.056.078c-.004.007-.011.013-.019.017s-.017.007-.026.007a.072.072 0 0 1-.036-.01.566.566 0 0 1-.061-.032l.004.002a.572.572 0 0 0-.18-.062h-.003a.874.874 0 0 0-.14-.011h-.016a.689.689 0 0 0-.219.036l.005-.001a.44.44 0 0 0-.277.254l-.001.003a.582.582 0 0 0 .001.424l-.001-.004c.058.12.158.213.282.258l.003.001c.074.022.151.03.229.025zm1.843-.02h.631v.144h-.825v-1.261h.198l-.005 1.117zm1.288.144h-.198v-1.261h.198v1.261zm.736-1.255a.1.1 0 0 1 .03.023l.845.951-.001-.023.001-.024v.001-.94h.172v1.266H24.322a.086.086 0 0 1-.036-.008h.001a.092.092 0 0 1-.031-.024l-.844-.95v.981h-.165V17.03h.103c.011 0 .022.002.032.006zm2.504-.006v.139h-.701v.416h.568v.134h-.568v.43h.701v.139h-.904v-1.258h.904zM5.161 9.244l8.781 2.153v7.543l-8.781-2.152V9.244zm-.563-.643v8.554l9.907 2.429v-8.553l-9.907-2.43z" />
            <path fill="#afb1b8" d="M9.908 23.555 0 21.124v-8.553l9.908 2.43v8.554z" />
            <path fill="#afb1b8" s
                d="m4.762 9.148 8.667 2.126-3.686 3.183-8.668-2.127 3.687-3.182zm-.164-.547L0 12.571l9.908 2.43 4.597-3.97-9.907-2.43zm5.867 14.473 4.04-3.488-4.04-.991v4.48z" />
        </symbol>
        <symbol id="icon-clock" viewBox="0 0 32 32">
            <path fill="#212121"
                d="M31.297 15.301C31.295 6.849 24.442-.002 15.989 0S.686 6.855.688 15.308c.001 6.788 4.422 12.543 10.541 14.545l.108.031a.657.657 0 0 0 .532-.067l-.003.002a.64.64 0 0 0 .282-.352l.001-.005 3.865-12.25a1.912 1.912 0 1 0-.851-3.63l.011-.005-5.106-5.107a.637.637 0 1 0-.902.902l5.103 5.109a1.873 1.873 0 0 0 .532 2.306l.004.003-3.683 11.673C3.844 25.782.118 17.709 2.799 10.431S13.553-.573 20.831 2.108s11.004 10.754 8.323 18.032c-1.345 3.581-4.003 6.406-7.374 7.937l-.088.036-.398-1.874a.639.639 0 0 0-1.049-.343l.001-.001-3.837 3.426a.638.638 0 0 0 .227 1.083l.005.001 4.899 1.563a.638.638 0 0 0 .818-.745l.001.004-.391-1.839c5.528-2.374 9.329-7.772 9.329-14.057v-.034.002zm-15.305-.637a.639.639 0 1 1 0 1.278.639.639 0 1 1 0-1.278zm2.101 14.864 2.184-1.948.603 2.84-2.787-.892z" />
            <path fill="#2196f3"
                d="M15.354 3.185V4.46a.638.638 0 0 0 1.276 0V3.185a.638.638 0 0 0-1.276 0zM3.876 14.664a.638.638 0 0 0 0 1.276h1.275a.638.638 0 0 0 0-1.276H3.876zm24.232 1.275a.638.638 0 0 0 0-1.276h-1.275a.638.638 0 0 0 0 1.276h1.275z" />
        </symbol>
        <symbol id="icon-facebook-f" viewBox="0 0 32 32">
            <path fill="#fff"
                d="M21.329 5.313h2.921V.225C23.746.156 22.013 0 19.994 0c-4.212 0-7.097 2.649-7.097 7.519V12H8.249v5.688h4.648V32h5.699V17.689h4.46l.708-5.688h-5.169V8.082c.001-1.644.444-2.769 2.735-2.769z" />
        </symbol>
        <symbol id="icon-facebook-t" viewBox="0 0 32 32">
            <path fill="#fff"
                d="M32 16c0 4.418-1.791 8.418-4.686 11.314S20.419 32 16 32s-8.418-1.791-11.314-4.686C1.791 24.419 0 20.419 0 16S1.791 7.582 4.686 4.686 11.581 0 16 0c4.418 0 8.418 1.791 11.314 4.686S32 11.581 32 16z" />
            <path fill="#afb1b8" style="fill:var(--color3, #afb1b8)"
                d="M18.422 11.142h1.328V8.829a16.768 16.768 0 0 0-1.878-.102h-.06.003c-1.915 0-3.226 1.204-3.226 3.418v2.037h-2.113v2.585h2.113v6.505h2.59v-6.505h2.027l.322-2.585h-2.35v-1.781c.001-.747.202-1.259 1.243-1.259z" />
        </symbol>
        <symbol id="icon-instagram-f" viewBox="0 0 32 32">
            <path fill="#fff"
                d="M31.969 9.408c-.075-1.7-.35-2.869-.744-3.882a7.847 7.847 0 0 0-1.85-2.837l-.001-.001A7.88 7.88 0 0 0 26.596.862l-.054-.018C25.523.45 24.36.175 22.66.1 20.947.019 20.403 0 16.059 0s-4.888.019-6.595.094c-1.7.075-2.869.35-3.882.744a7.845 7.845 0 0 0-2.837 1.849l-.001.001A7.89 7.89 0 0 0 .918 5.466L.9 5.52C.506 6.539.231 7.702.156 9.402c-.081 1.713-.1 2.257-.1 6.601s.019 4.888.094 6.595c.075 1.7.35 2.869.744 3.882a7.941 7.941 0 0 0 1.849 2.837l.001.001a7.89 7.89 0 0 0 2.778 1.826l.054.018c1.019.394 2.182.669 3.882.744 1.706.075 2.25.094 6.595.094s4.888-.019 6.595-.094c1.7-.075 2.869-.35 3.882-.744a8.233 8.233 0 0 0 4.663-4.627l.019-.055c.394-1.019.669-2.182.744-3.882.075-1.707.094-2.251.094-6.595s-.006-4.888-.081-6.595zm-2.882 13.065c-.069 1.563-.331 2.407-.55 2.969a5.334 5.334 0 0 1-3.002 3.025l-.036.013c-.563.219-1.413.481-2.969.55-1.688.075-2.194.094-6.464.094s-4.782-.019-6.464-.094c-1.563-.069-2.407-.331-2.969-.55a4.947 4.947 0 0 1-1.837-1.193l-.001-.001a4.988 4.988 0 0 1-1.183-1.804l-.011-.034c-.219-.563-.481-1.413-.55-2.969-.075-1.688-.094-2.194-.094-6.464s.019-4.782.094-6.464c.069-1.563.331-2.407.55-2.969a4.885 4.885 0 0 1 1.198-1.836l.002-.002a4.988 4.988 0 0 1 1.804-1.183l.034-.011c.563-.219 1.413-.481 2.969-.55 1.688-.075 2.194-.094 6.464-.094 4.276 0 4.782.019 6.464.094 1.563.069 2.407.331 2.969.55a4.947 4.947 0 0 1 1.837 1.193l.001.001a4.988 4.988 0 0 1 1.183 1.804l.011.034c.219.563.481 1.413.55 2.969.075 1.688.094 2.194.094 6.464s-.019 4.77-.094 6.458z" />
            <path fill="#fff"
                d="M16.059 7.783c-4.538 0-8.22 3.682-8.22 8.22s3.682 8.22 8.22 8.22c4.539 0 8.22-3.682 8.22-8.22s-3.682-8.22-8.22-8.22zm0 13.552a5.334 5.334 0 0 1-.006-10.664h.005a5.334 5.334 0 0 1 .006 10.664h-.005zM26.524 7.458a1.919 1.919 0 1 1-3.838 0 1.919 1.919 0 1 1 3.838 0z" />
        </symbol>
        <symbol id="icon-instagram-t" viewBox="0 0 32 32">
            <path fill="#fff"
                d="M32 16c0 4.418-1.791 8.418-4.686 11.314S20.419 32 16 32s-8.418-1.791-11.314-4.686C1.791 24.419 0 20.419 0 16S1.791 7.582 4.686 4.686 11.581 0 16 0c4.418 0 8.418 1.791 11.314 4.686S32 11.581 32 16z" />
            <path fill="#afb1b8" style="fill:var(--color3, #afb1b8)"
                d="M23.258 13.004c-.034-.773-.159-1.304-.338-1.765a3.576 3.576 0 0 0-.84-1.289l-.001-.001a3.588 3.588 0 0 0-1.262-.83l-.024-.008c-.463-.179-.992-.304-1.764-.338-.779-.037-1.026-.046-3.001-.046s-2.222.009-2.998.043c-.773.034-1.304.159-1.764.338a3.576 3.576 0 0 0-1.289.84l-.001.001c-.36.354-.645.784-.83 1.262l-.008.024c-.179.463-.304.992-.338 1.764-.037.779-.045 1.026-.045 3.001s.008 2.222.043 2.998c.034.773.159 1.304.338 1.765.185.489.472.926.841 1.29.364.369.804.656 1.287.838.463.179.992.304 1.765.338.776.034 1.023.043 2.998.043s2.222-.008 2.998-.043c.773-.034 1.304-.159 1.764-.338a3.74 3.74 0 0 0 2.119-2.103l.009-.025c.179-.463.304-.992.338-1.765.034-.776.043-1.023.043-2.998s-.003-2.222-.037-2.998zm-1.309 5.938c-.031.71-.151 1.094-.25 1.35a2.418 2.418 0 0 1-1.365 1.375l-.016.006c-.256.099-.642.219-1.35.25-.767.034-.997.043-2.938.043s-2.174-.008-2.938-.043c-.71-.031-1.094-.15-1.35-.25a2.23 2.23 0 0 1-.834-.542l-.001-.001a2.268 2.268 0 0 1-.538-.819l-.005-.016c-.099-.256-.219-.642-.25-1.35-.034-.767-.043-.997-.043-2.938s.008-2.174.043-2.938c.031-.71.151-1.094.25-1.35.117-.315.301-.602.546-.835.236-.242.52-.426.835-.543.256-.099.642-.219 1.35-.25.767-.034.997-.043 2.938-.043 1.944 0 2.174.008 2.938.043.71.031 1.094.151 1.35.25.315.116.602.301.835.543.241.236.426.52.543.835.099.256.219.642.25 1.35.034.767.043.997.043 2.938s-.009 2.168-.043 2.935z" />
            <path fill="#afb1b8" style="fill:var(--color3, #afb1b8)"
                d="M16.027 12.265a3.737 3.737 0 0 0-.005 7.472h.005a3.737 3.737 0 0 0 .005-7.472h-.005zm0 6.16a2.425 2.425 0 1 1 0-4.849 2.425 2.425 0 1 1 0 4.85zm4.757-6.308a.871.871 0 1 1-1.744 0 .871.871 0 1 1 1.744 0z" />
        </symbol>
        <symbol id="icon-linkedin-f" viewBox="0 0 32 32">
            <path fill="#fff"
                d="M31.992 32v-.001H32V20.263c0-5.741-1.236-10.164-7.948-10.164-3.227 0-5.392 1.771-6.276 3.449h-.093v-2.913h-6.364v21.364h6.627V21.42c0-2.785.528-5.479 3.977-5.479 3.399 0 3.449 3.179 3.449 5.657v10.401h6.62zM.528 10.636h6.635V32H.528V10.636zM3.843 0C1.722 0 0 1.721 0 3.843s1.721 3.879 3.843 3.879c2.121 0 3.843-1.757 3.843-3.879A3.846 3.846 0 0 0 3.843 0z" />
        </symbol>
        <symbol id="icon-linkedin-t" viewBox="0 0 32 32">
            <path fill="#fff"
                d="M32 16c0 4.418-1.791 8.418-4.686 11.314S20.419 32 16 32s-8.418-1.791-11.314-4.686C1.791 24.419 0 20.419 0 16S1.791 7.582 4.686 4.686 11.581 0 16 0c4.418 0 8.418 1.791 11.314 4.686S32 11.581 32 16z" />
            <path fill="#afb1b8"
                d="M23.269 23.273v-.001h.004v-5.335c0-2.61-.562-4.62-3.613-4.62-1.467 0-2.451.805-2.853 1.568h-.042v-1.324h-2.893v9.711h3.012v-4.809c0-1.266.24-2.49 1.808-2.49 1.545 0 1.568 1.445 1.568 2.572v4.728h3.009zM8.967 13.562h3.016v9.711H8.967v-9.711zm1.507-4.835c-.964 0-1.747.782-1.747 1.747s.782 1.763 1.747 1.763c.964 0 1.747-.799 1.747-1.763s-.783-1.747-1.747-1.747z" />
        </symbol>
        <symbol id="icon-mail" viewBox="0 0 43 32">
            <path fill="#757575"
                d="M38.667 0H4C1.794 0 0 1.794 0 4v24c0 2.206 1.794 4 4 4h34.667c2.206 0 4-1.794 4-4V4c0-2.206-1.794-4-4-4zm0 2.667c.181 0 .353.038.511.103L21.334 18.236 3.49 2.77c.151-.065.327-.103.511-.103h34.667zm0 26.666H4A1.335 1.335 0 0 1 2.667 28V5.587L20.46 21.008a1.331 1.331 0 0 0 1.75-.001l-.002.001L40.001 5.587V28c0 .736-.598 1.333-1.333 1.333z" />
        </symbol>
        <symbol id="icon-smartphone" viewBox="0 0 32 32">
            <path fill="#757575"
                d="M23 0H9C7.346 0 6 1.346 6 3v26c0 1.654 1.346 3 3 3h14c1.654 0 3-1.346 3-3V3c0-1.654-1.346-3-3-3zM9 2h14a1 1 0 0 1 1 1v21H8V3a1 1 0 0 1 1-1zm14 28H9a1 1 0 0 1-1-1v-3h16v3a1 1 0 0 1-1 1z" />
            <path fill="#757575"
                d="M10.707 27.478c.391.365.391.956 0 1.321s-1.024.365-1.414 0c-.391-.365-.391-.956 0-1.321s1.024-.365 1.414 0z" />
        </symbol>
        <symbol id="icon-twitter-f" viewBox="0 0 32 32">
            <path fill="#fff"
                d="M32 6.078c-1.19.522-2.458.868-3.78 1.036a6.555 6.555 0 0 0 2.873-3.58l.013-.046a12.858 12.858 0 0 1-4.076 1.574l-.084.014A6.559 6.559 0 0 0 22.154 3c-3.632 0-6.556 2.948-6.556 6.562 0 .52.044 1.02.152 1.496-5.454-.266-10.28-2.88-13.522-6.862a6.533 6.533 0 0 0-.898 3.316 6.56 6.56 0 0 0 2.891 5.437l.023.015a6.454 6.454 0 0 1-2.997-.825l.033.017v.072c0 3.188 2.274 5.836 5.256 6.446a6.408 6.408 0 0 1-1.669.216h-.054.003a5.842 5.842 0 0 1-1.279-.118l.037.006c.85 2.598 3.262 4.508 6.13 4.57a13.098 13.098 0 0 1-8.12 2.798h-.015.001c-.538 0-1.054-.024-1.57-.09C2.826 27.902 6.287 29 10.004 29h.063-.003c12.072 0 18.672-10 18.672-18.668 0-.29-.01-.57-.024-.848a13.186 13.186 0 0 0 3.258-3.359l.03-.047z" />
        </symbol>
        <symbol id="icon-twitter-t" viewBox="0 0 32 32">
            <path fill="#fff"
                d="M32 16c0 4.418-1.791 8.418-4.686 11.314S20.419 32 16 32s-8.418-1.791-11.314-4.686C1.791 24.419 0 20.419 0 16S1.791 7.582 4.686 4.686 11.581 0 16 0c4.418 0 8.418 1.791 11.314 4.686S32 11.581 32 16z" />
            <path fill="#afb1b8"
                d="M23.273 11.49c-.5.224-1.08.389-1.687.468l-.031.003a2.985 2.985 0 0 0 1.306-1.627l.006-.021a5.853 5.853 0 0 1-1.853.716l-.038.006a2.981 2.981 0 0 0-5.158 2.036v.003c0 .236.02.464.069.68a8.43 8.43 0 0 1-6.134-3.104l-.012-.015a2.95 2.95 0 0 0-.407 1.505 2.98 2.98 0 0 0 1.314 2.473l.011.007a2.937 2.937 0 0 1-1.362-.375l.015.008v.033a2.996 2.996 0 0 0 2.369 2.926l.02.003c-.228.062-.49.098-.76.098h-.023.001-.047c-.183 0-.363-.019-.536-.054l.017.003a3.018 3.018 0 0 0 2.782 2.077h.004a5.954 5.954 0 0 1-3.691 1.272h-.043c-.239 0-.474-.015-.704-.044l.027.003a8.311 8.311 0 0 0 4.546 1.338h.03-.002c5.487 0 8.487-4.545 8.487-8.485 0-.132-.005-.259-.011-.385a5.981 5.981 0 0 0 1.481-1.527l.014-.021z" />
        </symbol>
        <symbol id="icon-vector" viewBox="0 0 32 32">
            <path
                d="M1.599 28.291h25.587a1.6 1.6 0 0 0 1.599-1.599V24.56a1.6 1.6 0 0 0-1.599-1.599h-.533V9.668L29.681 6.8a1.608 1.608 0 1 0-.741-.753l-.004-.01L26.655 8.2V6.97a1.6 1.6 0 0 0-1.599-1.599H3.734A1.6 1.6 0 0 0 2.135 6.97v15.992h-.533a1.6 1.6 0 0 0-1.599 1.599v2.132a1.6 1.6 0 0 0 1.599 1.599zM30.384 4.837a.534.534 0 1 1 0 1.068.534.534 0 1 1 0-1.068zM3.198 6.969c0-.294.239-.533.533-.533h21.322c.294 0 .533.239.533.533v2.239l-1.066 1.013V8.035a.533.533 0 0 0-.533-.533H4.797a.533.533 0 0 0-.533.533v13.326c0 .294.239.533.533.533h19.19a.533.533 0 0 0 .533-.533v-9.674l1.066-1.01v12.284H3.198V6.969zm4.798 6.93h-.002a1.597 1.597 0 1 0 1.109 2.749h-.001l1.853.93a.528.528 0 0 0 .636-.123v-.001l3.939-4.431 3.872 2.901a.527.527 0 0 0 .686-.039l3.365-3.188v8.131H5.329V8.568h18.124v2.66L19.682 14.8l-3.904-2.927a.534.534 0 0 0-.718.071v.001l-3.993 4.493-1.493-.746c.011-.064.018-.129.02-.193A1.6 1.6 0 0 0 7.995 13.9zm.533 1.599a.533.533 0 1 1-1.068-.001.534.534 0 1 1 1.068 0zm3.198 8.529h5.331v.533a.533.533 0 0 1-.533.533h-4.264a.533.533 0 0 1-.533-.533v-.533zm-10.661.533c0-.294.239-.533.533-.533h9.062v.533a1.6 1.6 0 0 0 1.599 1.599h4.264a1.6 1.6 0 0 0 1.599-1.599v-.533h9.062c.294 0 .533.239.533.533v2.132a.533.533 0 0 1-.533.533H1.598a.533.533 0 0 1-.533-.533V24.56z" />
        </symbol>
    </defs>
</svg>